<svg width="100" height="100" fill="none" xmlns="http://www.w3.org/2000/svg">
  <g filter="url(#filter0_d)">
    <path d="M47.3272 25.0852C39.9128 25.9979 33.8363 29.5989 29.4976 35.6504C28.5599 36.9633 27.1595 39.6515 26.5344 41.3269C25.3216 44.5902 24.7964 48.3162 25.0715 51.7046C25.5716 57.9437 28.0098 63.2826 32.3109 67.5962C33.8488 69.1341 35.1866 70.1969 36.862 71.2346C45.9269 76.8861 57.8675 76.0359 66.0196 69.1841C70.7958 65.1581 73.7841 59.8317 74.7843 53.5175C75.0719 51.6921 75.0719 48.2787 74.7843 46.3907C73.0839 35.4254 64.9943 27.1983 54.0165 25.2603C52.6786 25.0227 48.6776 24.9102 47.3272 25.0852ZM51.8659 29.2863C52.5411 29.3488 52.7036 29.3988 52.7036 29.5739C52.7036 29.8489 43.5888 69.4842 43.5013 69.5717C43.4012 69.6717 42.2759 69.2466 40.9881 68.6339C38.6875 67.5337 36.0618 65.5457 34.4364 63.6577C30.1853 58.7564 28.4349 52.3047 29.6477 45.9531C30.4479 41.727 33.011 37.2634 36.2619 34.4251C39.5127 31.5869 43.4762 29.8239 47.7023 29.3363C48.8901 29.1988 50.7656 29.1738 51.8659 29.2863ZM58.2926 30.9367C61.9935 32.5621 65.2319 35.3003 67.4074 38.6387C71.4085 44.8028 71.8586 52.6673 68.5827 59.194C65.657 65.033 60.3306 69.0841 53.9039 70.3594C52.7786 70.5845 52.066 70.6345 50.178 70.647C48.9026 70.647 47.8149 70.622 47.7774 70.5719C47.7273 70.5219 56.6922 31.1743 56.8922 30.5991C56.9672 30.3741 57.0923 30.3991 58.2926 30.9367Z" fill="#F7F8F9"/>
    <path d="M37.8874 45.2529L33.3862 48.5413L33.3612 49.9041L33.3362 51.267L37.3872 54.2678C39.6253 55.9182 41.7008 57.4436 41.9884 57.6686L42.5386 58.0687L43.5013 56.7559C44.039 56.0307 44.4266 55.393 44.3765 55.3305C44.314 55.2805 42.6511 54.0427 40.6756 52.5798C37.1247 49.9541 37.0872 49.9166 37.3622 49.7166C37.5123 49.5915 39.1752 48.3787 41.0382 47.0284C43.3013 45.378 44.4141 44.4902 44.3515 44.3902C43.9764 43.7525 42.6136 41.9646 42.5136 41.9646C42.451 41.9646 40.363 43.44 37.8874 45.2529Z" fill="#F7F8F9"/>
    <path d="M57.0173 43.1649C56.5422 43.8276 56.1296 44.4152 56.1046 44.4652C56.0921 44.5027 57.705 45.7656 59.7055 47.2409C61.6935 48.7288 63.3315 49.9917 63.3315 50.0417C63.319 50.0917 61.6935 51.317 59.7055 52.7674C57.705 54.2052 56.0796 55.4055 56.0796 55.4181C56.0796 55.4431 56.5047 56.0432 57.0298 56.7684L57.9801 58.0812L58.5052 57.7061C58.7803 57.4936 60.8558 55.9807 63.1064 54.3553L67.195 51.392V50.0542L67.2075 48.7288L62.6563 45.3405C60.1431 43.4775 58.0551 41.9521 57.9926 41.9646C57.9426 41.9646 57.505 42.5022 57.0173 43.1649Z" fill="#F7F8F9"/>
  </g>
  <defs>
    <filter id="filter0_d" x="0" y="-7.62939e-06" width="100" height="99.9611" filterUnits="userSpaceOnUse" color-interpolation-filters="sRGB">
      <feFlood flood-opacity="0" result="BackgroundImageFix"/>
      <feColorMatrix in="SourceAlpha" type="matrix" values="0 0 0 0 0 0 0 0 0 0 0 0 0 0 0 0 0 0 127 0"/>
      <feOffset/>
      <feGaussianBlur stdDeviation="12.5"/>
      <feColorMatrix type="matrix" values="0 0 0 0 0.392157 0 0 0 0 0.701961 0 0 0 0 0.407843 0 0 0 1 0"/>
      <feBlend mode="normal" in2="BackgroundImageFix" result="effect1_dropShadow"/>
      <feBlend mode="normal" in="SourceGraphic" in2="effect1_dropShadow" result="shape"/>
    </filter>
  </defs>
</svg>