<svg width="249" height="69" viewBox="0 0 249 69" fill="none" xmlns="http://www.w3.org/2000/svg">
<rect x="15" y="10" width="222" height="48"/>
<path d="M50.8776 23.0377C47.5974 23.4415 44.9092 25.0345 42.9898 27.7117C42.5749 28.2925 41.9554 29.4818 41.6788 30.223C41.1423 31.6667 40.9099 33.3151 41.0316 34.8141C41.2529 37.5743 42.3315 39.9362 44.2343 41.8445C44.9147 42.5249 45.5066 42.9951 46.2478 43.4542C50.2581 45.9544 55.5406 45.5783 59.1471 42.547C61.2601 40.7659 62.5821 38.4095 63.0246 35.6162C63.1518 34.8086 63.1518 33.2985 63.0246 32.4632C62.2723 27.6122 58.6935 23.9725 53.8369 23.1151C53.245 23.01 51.475 22.9603 50.8776 23.0377ZM52.8855 24.8963C53.1842 24.9239 53.2561 24.946 53.2561 25.0235C53.2561 25.1452 49.2237 42.6798 49.185 42.7185C49.1407 42.7628 48.6429 42.5747 48.0731 42.3036C47.0554 41.8169 45.8938 40.9374 45.1747 40.1021C43.294 37.9338 42.5196 35.0796 43.0561 32.2696C43.4101 30.4 44.5441 28.4253 45.9823 27.1697C47.4204 25.914 49.1739 25.1341 51.0435 24.9184C51.569 24.8575 52.3987 24.8465 52.8855 24.8963ZM55.7286 25.6264C57.3659 26.3455 58.7986 27.5569 59.761 29.0338C61.5311 31.7608 61.7302 35.24 60.281 38.1274C58.9866 40.7106 56.6303 42.5028 53.7871 43.067C53.2893 43.1666 52.974 43.1887 52.1387 43.1942C51.5745 43.1942 51.0933 43.1831 51.0767 43.161C51.0546 43.1389 55.0206 25.7315 55.1091 25.4771C55.1423 25.3775 55.1976 25.3886 55.7286 25.6264Z" fill="#AF201D"/>
<g filter="url(#filter0_d)">
<path d="M46.7 31.9598L44.7086 33.4146L44.6976 34.0175L44.6865 34.6204L46.4787 35.948C47.4688 36.6781 48.387 37.353 48.5143 37.4525L48.7577 37.6295L49.1836 37.0487C49.4214 36.7279 49.5929 36.4458 49.5708 36.4182C49.5431 36.396 48.8074 35.8484 47.9335 35.2012C46.3625 34.0396 46.346 34.0231 46.4676 33.9346C46.534 33.8792 47.2697 33.3427 48.0939 32.7453C49.0951 32.0151 49.5874 31.6224 49.5597 31.5782C49.3938 31.2961 48.7908 30.5051 48.7466 30.5051C48.7189 30.5051 47.7952 31.1578 46.7 31.9598Z" fill="#F7F8F9"/>
</g>
<g filter="url(#filter1_d)">
<path d="M55.1651 31.0361C54.9549 31.3293 54.7724 31.5893 54.7613 31.6114C54.7558 31.628 55.4693 32.1867 56.3544 32.8394C57.2339 33.4976 57.9585 34.0563 57.9585 34.0784C57.9529 34.1006 57.2339 34.6426 56.3544 35.2843C55.4693 35.9204 54.7502 36.4514 54.7502 36.4569C54.7502 36.468 54.9383 36.7335 55.1706 37.0543L55.591 37.6351L55.8233 37.4692C55.945 37.3752 56.8633 36.7059 57.8589 35.9868L59.6677 34.6758V34.084L59.6732 33.4976L57.6598 31.9986C56.548 31.1744 55.6242 30.4996 55.5966 30.5051C55.5744 30.5051 55.3808 30.743 55.1651 31.0361Z" fill="#F7F8F9"/>
</g>
<g filter="url(#filter2_d)">
<path d="M38.806 25.6C38.3868 25.4798 37.2867 25.3 36.3473 25.1798C35.4281 25.0798 34.6493 25 34.6493 25C34.6493 25.0167 34.268 25.074 33.7638 25.1497C33.6573 25.1657 33.5452 25.1826 33.4301 25.2C30.3321 25.6 27.5341 27.6182 26.0745 30.5163C24.9957 32.6749 24.7159 35.1537 25.2957 37.6315C26.1745 41.4689 29.2523 43.7871 33.5493 43.8073C35.4483 43.8275 36.7878 43.3881 37.807 42.4083C39.006 41.2891 40.005 38.9103 39.406 38.6709C39.2262 38.6113 39.0656 38.5911 39.0656 38.6113C39.0464 38.6507 38.6858 39.1103 38.2464 39.6507C37.1867 40.9891 36.1079 41.4487 34.3089 41.3295C32.3109 41.1689 31.2715 40.4901 30.3513 38.6911C29.6725 37.3517 29.6523 37.2315 29.6523 35.0931C29.6523 30.5364 31.2311 27.8586 34.1887 27.4586C36.0483 27.199 37.807 28.6182 38.4666 30.9163C38.706 31.7153 38.8656 31.9759 39.1656 31.9759C39.5252 31.9759 39.5454 31.7961 39.5454 28.8778V25.8L38.806 25.6Z" fill="#F7F8F9"/>
<path d="M155.169 25.8192C154.97 25.8394 154.311 25.7202 153.711 25.5394C150.772 24.6606 147.475 25.1798 145.736 26.8394C143.658 28.8172 143.617 32.3153 145.636 34.2143C146.475 34.9739 148.474 36.1527 149.414 36.3921C151.432 36.9517 153.311 38.3315 153.311 39.2901C153.311 39.6507 152.451 40.7891 151.912 41.1891C150.433 42.2487 147.215 41.4093 145.116 39.4507C144.557 38.9305 144.097 38.5507 144.057 38.5911C144.037 38.6305 144.037 39.6699 144.077 40.9093C144.137 42.7881 144.197 43.1275 144.437 43.0275C144.596 42.9679 145.156 43.0881 145.676 43.2881C146.436 43.5871 147.155 43.6679 149.414 43.6679C152.012 43.6679 152.291 43.6275 153.311 43.1477C154.53 42.5679 155.729 41.4891 156.229 40.5295C156.729 39.5507 156.809 37.9719 156.409 36.7527C155.829 35.0335 154.43 33.8143 152.091 32.9951C147.755 31.4759 146.436 30.197 147.494 28.4576C148.074 27.499 149.114 27.1192 150.792 27.2182C152.391 27.3182 153.49 27.798 154.71 28.9172L155.51 29.6172V27.698C155.51 26 155.469 25.7798 155.169 25.8192Z" fill="#F7F8F9"/>
<path d="M222.524 25.8192C222.324 25.8394 221.664 25.7202 221.065 25.5394C218.866 24.8798 216.288 24.9798 214.589 25.8C213.45 26.3394 212.031 27.8778 211.711 28.9374C211.391 30.0173 211.411 31.3354 211.791 32.4355C212.331 34.0345 214.55 35.7133 217.367 36.6527C219.686 37.4123 220.845 38.5911 220.446 39.7507C220.166 40.5699 219.227 41.3689 218.347 41.5891C216.707 41.9689 213.87 40.9295 212.371 39.3901C211.951 38.9305 211.532 38.5709 211.452 38.5709C211.372 38.5709 211.332 38.9911 211.352 39.5103C211.357 39.6582 211.364 39.8378 211.372 40.0341L211.372 40.0444C211.392 40.562 211.417 41.1934 211.432 41.6689L211.471 42.8679L212.431 43.1275C214.55 43.6871 215.469 43.8073 217.467 43.7275C219.266 43.6679 219.726 43.5871 220.705 43.1083C223.163 41.9083 224.402 39.6305 223.883 37.2921C223.424 35.2537 221.904 33.7941 219.366 32.9749C218.606 32.7355 217.348 32.1951 216.588 31.8153C214.509 30.7365 213.97 29.5566 214.969 28.2576C215.608 27.4182 216.588 27.099 218.247 27.2182C219.746 27.3384 220.885 27.8384 222.064 28.9172L222.864 29.6172V27.698C222.864 26 222.824 25.7798 222.524 25.8192Z" fill="#F7F8F9"/>
<path d="M130.726 26.3788C131.026 26.3788 131.126 26.2394 131.126 25.8798V25.3798H127.868C126.07 25.3798 124.53 25.4404 124.471 25.5202C124.171 25.8 124.33 26.3788 124.71 26.3788C125.57 26.3788 125.629 26.7394 125.729 33.0547L125.829 39.0709L126.389 40.2103C128.448 44.4073 134.963 45.1467 138.201 41.5487C139.68 39.9103 139.78 39.3901 139.84 33.7739C139.88 31.0758 139.94 28.4778 140 27.998C140.119 27.0788 140.579 26.3788 141.059 26.3788C141.199 26.3788 141.319 26.199 141.319 25.9798C141.319 25.6202 141.179 25.5798 139.38 25.5394L139.268 25.5366C135.518 25.4438 134.846 25.4272 134.759 25.6454C134.739 25.693 134.748 25.7518 134.759 25.8235L134.764 25.8596C134.803 26.1596 135.003 26.299 135.463 26.3394C135.883 26.3788 136.222 26.5788 136.462 26.9384C136.782 27.4182 136.822 28.0384 136.882 32.7749C136.962 38.6113 136.882 39.1507 135.863 40.3103C133.944 42.4881 130.866 41.6487 129.926 38.6911C129.607 37.7113 129.787 27.4182 130.126 26.7788C130.247 26.5596 130.526 26.3788 130.726 26.3788Z" fill="#F7F8F9"/>
<path fill-rule="evenodd" clip-rule="evenodd" d="M81.2399 34.8739C81.2793 30.4364 79.2409 27.4182 75.364 26.1394C74.2246 25.7596 73.5054 25.7 69.3074 25.6202C64.771 25.5394 64.5316 25.5596 64.6114 25.9C64.6508 26.1192 64.8508 26.299 65.071 26.3394C65.9498 26.499 65.97 26.6788 65.97 34.4335C65.97 39.1305 65.8902 41.9285 65.77 42.1881C65.6508 42.3881 65.3902 42.5679 65.1902 42.5679C64.871 42.5679 64.571 42.9285 64.571 43.3073C64.571 43.3477 66.9296 43.3679 69.8276 43.3275C74.5842 43.2477 75.164 43.2083 76.2236 42.8083C79.5813 41.5689 81.2197 38.9709 81.2399 34.8739ZM70.0413 35.4147C69.9474 39.6969 69.9208 40.9102 70.451 41.2471C70.6606 41.3803 70.9572 41.3765 71.3711 41.3712C71.4575 41.3701 71.5491 41.3689 71.646 41.3689C74.6248 41.3689 76.2229 39.7507 76.7633 36.1931C77.1623 33.6547 76.4431 30.796 74.9845 29.1374C74.0653 28.098 72.8854 27.5788 71.4268 27.5788H70.2278L70.0672 34.2143C70.0583 34.6373 70.0496 35.0353 70.0414 35.41L70.0413 35.4147Z" fill="#F7F8F9"/>
<path d="M97.1492 30.7758C97.529 30.7758 97.5492 30.6365 97.5492 28.1778V25.5798H90.6531C83.8977 25.5798 83.7581 25.5798 83.7581 25.9798C83.7581 26.2394 83.8975 26.3788 84.1581 26.3788C84.3581 26.3788 84.6379 26.5596 84.7571 26.7586C84.8773 27.0192 84.9571 29.8173 84.9571 34.4739C84.9571 39.1305 84.8773 41.9285 84.7571 42.1881C84.6379 42.3881 84.3581 42.5679 84.1581 42.5679C83.8975 42.5679 83.7581 42.7083 83.7581 42.9679C83.7581 43.3679 83.8975 43.3679 91.1529 43.3679H98.5482V42.5083C98.5482 42.0487 98.6078 40.8295 98.6876 39.8103C98.7876 38.0911 98.7674 37.9719 98.428 37.9911C98.2078 37.9911 97.6886 38.4709 97.229 39.0305C95.8694 40.7699 94.6906 41.3487 92.4117 41.4093C90.4733 41.4487 90.1541 41.3891 89.6541 40.8699C89.1743 40.4093 89.1541 40.2699 89.1541 37.9719V35.5729L90.6137 35.5335C92.6724 35.4729 92.9916 35.4931 93.5714 35.6527L94.0906 35.7931L94.1108 34.0941C94.131 33.1547 94.131 32.3749 94.0906 32.3749C94.0759 32.3749 93.8519 32.4564 93.5512 32.5658L93.2512 32.6749C92.8118 32.8345 91.7127 32.9547 90.8137 32.9749H89.1541V27.5182L91.1329 27.6384C92.2319 27.698 93.5118 27.8586 93.9714 27.998C94.931 28.298 96.7492 29.8566 96.7492 30.397C96.7492 30.6364 96.8896 30.7758 97.1492 30.7758Z" fill="#F7F8F9"/>
<path fill-rule="evenodd" clip-rule="evenodd" d="M121.132 29.9769C121.132 27.998 120.074 26.7394 117.815 26C116.656 25.6202 116.076 25.5798 111.639 25.5798C106.883 25.5798 106.742 25.6 106.742 25.9798C106.742 26.2394 106.883 26.3788 107.122 26.3788C107.322 26.3788 107.602 26.499 107.722 26.6586C108.022 27.0192 108.041 41.6285 107.722 42.1881C107.622 42.3881 107.342 42.5679 107.142 42.5679C106.862 42.5679 106.742 42.7083 106.742 42.9881C106.742 43.3881 106.783 43.3881 112.599 43.3275C118.075 43.2679 118.495 43.2275 119.554 42.8083C121.393 42.0689 122.332 40.7497 122.332 38.8709C122.332 38.2517 122.212 37.4719 122.053 37.1123C121.453 35.6527 119.633 34.4739 117.675 34.2335C117.156 34.1739 116.756 34.0739 116.796 34.0345C116.835 33.9941 117.395 33.8345 118.055 33.6547C120.154 33.1143 121.132 31.9557 121.132 29.9769ZM112.139 30.3364C112.139 28.7374 112.199 27.3788 112.279 27.3182C112.338 27.2384 112.898 27.1788 113.518 27.1788C115.577 27.1788 116.735 28.1576 116.896 30.0364C117.056 32.1153 116.216 32.9547 113.737 33.1143L112.139 33.2345V30.3364ZM112.099 36.4921C112.06 37.2517 112.06 38.7113 112.099 39.7305L112.159 41.5891L113.398 41.4891C114.078 41.4295 115.077 41.3891 115.617 41.3689C116.436 41.3689 116.676 41.2689 117.256 40.6891C117.856 40.0901 117.935 39.8901 117.935 38.9305C117.915 36.6527 116.476 35.3729 113.718 35.2133L112.159 35.1133L112.099 36.4921Z" fill="#F7F8F9"/>
<path d="M173.697 29.4576V25.5798H157.908V29.2374L158.428 28.698C159.127 28.0182 160.046 27.7788 162.065 27.7788H163.704V28.3182C163.764 34.5133 163.644 41.8891 163.484 42.1881C163.384 42.4083 163.105 42.5679 162.905 42.5679C162.645 42.5679 162.505 42.7083 162.505 42.9679C162.505 43.3477 162.645 43.3679 165.803 43.3679C168.96 43.3679 169.1 43.3477 169.1 42.9679C169.1 42.7083 168.96 42.5679 168.74 42.5679C167.921 42.5679 167.901 42.3689 167.901 34.9335V27.7788L169.26 27.798C171.619 27.8182 172.518 28.0384 173.137 28.798L173.697 29.4576Z" fill="#F7F8F9"/>
<path d="M189.207 29.6374C189.167 28.997 189.126 27.8182 189.107 27.0192L189.087 25.5798H182.192C175.516 25.5798 175.296 25.6 175.296 25.9596C175.296 26.2192 175.456 26.3788 175.736 26.4192C176.635 26.5394 176.695 27.0192 176.695 34.5335C176.695 39.1305 176.615 41.7285 176.476 41.9891C176.376 42.2083 176.055 42.4679 175.775 42.5679C175.516 42.6679 175.296 42.8881 175.296 43.0679C175.296 43.3275 176.196 43.3679 182.691 43.3679H190.086L190.166 42.9083C190.226 42.6679 190.306 41.4487 190.345 40.2103C190.406 37.9911 190.406 37.9719 189.966 37.9719C189.686 37.9719 189.467 38.1315 189.387 38.3709C189.306 38.5911 188.827 39.2103 188.307 39.7507C187.108 40.9689 185.869 41.4295 183.671 41.3891C180.952 41.3487 180.693 41.0295 180.693 37.7719V35.5729L181.751 35.5527C184.17 35.4931 184.61 35.4931 185.149 35.6527L185.689 35.8133V32.1153L185.27 32.4951C184.949 32.7749 184.449 32.8749 182.95 32.9345C181.772 32.9951 180.992 32.9547 180.912 32.8153C180.852 32.7153 180.812 31.4759 180.852 30.0769L180.912 27.5182L182.85 27.6586C183.91 27.7182 185.129 27.8778 185.529 27.9778C186.508 28.2576 188.247 29.6375 188.327 30.2162C188.367 30.5163 188.547 30.6961 188.827 30.7365C189.226 30.7961 189.267 30.7364 189.207 29.6374Z" fill="#F7F8F9"/>
<path fill-rule="evenodd" clip-rule="evenodd" d="M206.095 27.1788C205.495 26.5788 204.816 26.1596 204.096 25.9192C203.197 25.6394 202.217 25.5798 197.761 25.5798C192.624 25.5798 192.484 25.6 192.484 25.9798C192.484 26.2394 192.624 26.3788 192.864 26.3788C193.064 26.3788 193.343 26.499 193.464 26.6586C193.764 27.0192 193.784 41.6285 193.464 42.1881C193.364 42.3881 193.084 42.5679 192.884 42.5679C192.624 42.5679 192.484 42.7083 192.484 42.9679C192.484 43.3477 192.624 43.3679 195.782 43.3679C198.939 43.3679 199.08 43.3477 199.08 42.9679C199.08 42.7083 198.939 42.5679 198.7 42.5679C197.881 42.5679 197.82 42.2881 197.861 38.3113C197.881 36.0123 197.92 35.5729 198.181 35.5729C198.72 35.5729 200.279 37.2123 201.118 38.6507C201.578 39.4305 202.298 40.5901 202.717 41.2093C203.138 41.8285 203.477 42.5679 203.477 42.8477V43.3679H206.575C209.533 43.3679 209.673 43.3477 209.673 42.9679C209.673 42.7477 209.593 42.5679 209.473 42.5679C209.113 42.5679 207.634 41.0891 206.475 39.5699C205.356 38.1113 203.477 35.2729 203.477 35.0739C203.477 35.0133 203.877 34.7941 204.357 34.5941C207.654 33.1749 208.513 29.5172 206.095 27.1788ZM197.92 31.096C197.961 29.3172 198.061 27.7586 198.161 27.598C198.4 27.2192 200.679 27.4182 201.498 27.898C201.858 28.1182 202.358 28.6778 202.637 29.1779C203.037 29.9173 203.097 30.2768 203.017 31.2163C202.837 33.3345 201.878 34.2941 199.819 34.4335C198.936 34.501 198.443 34.5755 198.174 34.364C197.804 34.0727 197.862 33.2386 197.92 31.096Z" fill="#F7F8F9"/>
</g>
<defs>
<filter id="filter0_d" x="19.6865" y="5.50507" width="54.8862" height="57.1245" filterUnits="userSpaceOnUse" color-interpolation-filters="sRGB">
<feFlood flood-opacity="0" result="BackgroundImageFix"/>
<feColorMatrix in="SourceAlpha" type="matrix" values="0 0 0 0 0 0 0 0 0 0 0 0 0 0 0 0 0 0 127 0"/>
<feOffset/>
<feGaussianBlur stdDeviation="12.5"/>
<feColorMatrix type="matrix" values="0 0 0 0 0.392157 0 0 0 0 0.701961 0 0 0 0 0.407843 0 0 0 1 0"/>
<feBlend mode="normal" in2="BackgroundImageFix" result="effect1_dropShadow"/>
<feBlend mode="normal" in="SourceGraphic" in2="effect1_dropShadow" result="shape"/>
</filter>
<filter id="filter1_d" x="29.7502" y="5.50509" width="54.923" height="57.13" filterUnits="userSpaceOnUse" color-interpolation-filters="sRGB">
<feFlood flood-opacity="0" result="BackgroundImageFix"/>
<feColorMatrix in="SourceAlpha" type="matrix" values="0 0 0 0 0 0 0 0 0 0 0 0 0 0 0 0 0 0 127 0"/>
<feOffset/>
<feGaussianBlur stdDeviation="12.5"/>
<feColorMatrix type="matrix" values="0 0 0 0 0.392157 0 0 0 0 0.701961 0 0 0 0 0.407843 0 0 0 1 0"/>
<feBlend mode="normal" in2="BackgroundImageFix" result="effect1_dropShadow"/>
<feBlend mode="normal" in="SourceGraphic" in2="effect1_dropShadow" result="shape"/>
</filter>
<filter id="filter2_d" x="0" y="7.62939e-06" width="249" height="68.8543" filterUnits="userSpaceOnUse" color-interpolation-filters="sRGB">
<feFlood flood-opacity="0" result="BackgroundImageFix"/>
<feColorMatrix in="SourceAlpha" type="matrix" values="0 0 0 0 0 0 0 0 0 0 0 0 0 0 0 0 0 0 127 0"/>
<feOffset/>
<feGaussianBlur stdDeviation="12.5"/>
<feColorMatrix type="matrix" values="0 0 0 0 0.392157 0 0 0 0 0.701961 0 0 0 0 0.407843 0 0 0 1 0"/>
<feBlend mode="normal" in2="BackgroundImageFix" result="effect1_dropShadow"/>
<feBlend mode="normal" in="SourceGraphic" in2="effect1_dropShadow" result="shape"/>
</filter>
</defs>
</svg>